<svg width="73" height="93" viewBox="0 0 73 93" fill="none" xmlns="http://www.w3.org/2000/svg">
<path d="M11.3534 82.6904C5.07893 82.6904 0 75.0132 0 65.5383C0 56.0634 5.08922 48.3848 11.3534 48.3848C17.6162 48.3848 16.4309 56.0634 16.4309 65.5383C16.4206 75.0029 17.6162 82.6904 11.3534 82.6904Z" fill="#593B9B"/>
<path d="M37.1651 82.3056C43.4396 82.3056 48.5186 74.6284 48.5186 65.1535C48.5186 55.6786 43.4293 48 37.1651 48C30.9024 48 32.0877 55.6786 32.0877 65.1535C32.0979 74.6182 30.9024 82.3056 37.1651 82.3056Z" fill="#593B9B"/>
<path d="M39.2538 38.2935C39.2538 38.2935 30.3165 43.7616 23.9891 43.7616C17.6602 43.7616 8.67884 38.2935 8.67884 38.2935C6.95453 38.2935 5.50928 39.8856 5.50928 41.8346V78.0995C5.50928 78.3492 5.56362 78.5871 5.60621 78.8148C6.39346 85.3772 14.3291 90.531 23.9773 90.531C33.627 90.531 41.5407 85.3772 42.3264 78.8251C42.3705 78.5974 42.3925 78.3492 42.3925 78.1113V41.8229C42.3808 39.8856 40.9796 38.2935 39.2538 38.2935Z" fill="#593B9B"/>
<path d="M39.2538 38.2935C39.2538 38.2935 30.3165 43.7616 23.9891 43.7616C17.6602 43.7616 8.67884 38.2935 8.67884 38.2935C6.95453 38.2935 5.50928 39.8856 5.50928 41.8346V78.0995C5.50928 78.3492 5.56362 78.5871 5.60622 78.8148C6.39347 85.3772 14.3291 90.531 23.9773 90.531C33.627 90.531 41.5407 85.3772 42.3264 78.8251C42.3705 78.5974 42.3925 78.3492 42.3925 78.1113V41.8229C42.3808 39.8856 40.9796 38.2935 39.2538 38.2935Z" fill="#845A8F"/>
<path d="M22.1239 90.9758C22.1239 89.535 21.0135 88.3218 19.5785 88.3218C18.145 88.3218 17.0347 89.4483 17.0347 90.8891V92.1126H22.1121L22.1239 90.9758Z" fill="#7B2C2D"/>
<path d="M30.8674 90.9758C30.8674 89.535 29.8643 88.3218 28.4308 88.3218C26.9973 88.3218 25.9941 89.4483 25.9941 90.8891V92.1126H30.8674V90.9758Z" fill="#7B2C2D"/>
<path d="M39.9439 56.2045C39.9439 56.5512 39.919 56.8992 39.8676 57.2444C39.8162 57.591 39.7398 57.9347 39.637 58.2769C39.5356 58.6177 39.4078 58.954 39.2566 59.2874C39.1038 59.6208 38.9276 59.9484 38.7278 60.2686C38.5266 60.5902 38.3034 60.9045 38.0566 61.2115C37.8099 61.5185 37.5411 61.8166 37.2503 62.106C36.9594 62.3953 36.6481 62.6744 36.3147 62.9432C35.9827 63.2119 35.6317 63.469 35.2616 63.7157C34.8914 63.961 34.5037 64.1945 34.0983 64.4163C33.6944 64.6366 33.2743 64.8437 32.8381 65.0361C32.4034 65.23 31.9539 65.4092 31.4928 65.5722C31.0316 65.7367 30.5586 65.8851 30.0739 66.0187C29.5907 66.1509 29.0987 66.2684 28.5978 66.3698C28.0955 66.4711 27.5888 66.5548 27.0748 66.6224C26.5622 66.6914 26.0437 66.7413 25.5238 66.7751C25.0023 66.8104 24.4795 66.8265 23.9566 66.8265C23.4322 66.8265 22.9094 66.8104 22.3894 66.7751C21.868 66.7413 21.351 66.6914 20.837 66.6224C20.3229 66.5548 19.8162 66.4711 19.3153 66.3698C18.813 66.2684 18.321 66.1509 17.8378 66.0187C17.3531 65.8851 16.8816 65.7367 16.419 65.5722C15.9578 65.4092 15.5083 65.23 15.0736 65.0361C14.6374 64.8437 14.2173 64.6366 13.8134 64.4163C13.408 64.1945 13.0203 63.961 12.6501 63.7157C12.28 63.469 11.929 63.2119 11.5971 62.9432C11.2651 62.6744 10.9537 62.3953 10.6615 62.106C10.3706 61.8166 10.1019 61.5185 9.85512 61.2115C9.60837 60.9045 9.38512 60.5902 9.18537 60.2686C8.98415 59.9484 8.8079 59.6208 8.65662 59.2874C8.50387 58.954 8.37755 58.6177 8.27474 58.2769C8.1734 57.9347 8.09555 57.591 8.04415 57.2444C7.99274 56.8992 7.96777 56.5512 7.96777 56.2045C7.96777 55.8564 7.99274 55.5083 8.04415 55.1632C8.09555 54.8166 8.1734 54.4729 8.27474 54.1321C8.37755 53.7899 8.50387 53.4536 8.65662 53.1202C8.8079 52.7867 8.98415 52.4607 9.18537 52.139C9.38512 51.8174 9.60837 51.5031 9.85512 51.1961C10.1019 50.8891 10.3706 50.591 10.6615 50.3016C10.9537 50.0123 11.2651 49.7332 11.5971 49.4644C11.929 49.1957 12.28 48.9386 12.6501 48.6919C13.0203 48.4466 13.408 48.2131 13.8134 47.9927C14.2173 47.771 14.6374 47.5639 15.0736 47.3715C15.5083 47.1776 15.9578 46.9999 16.419 46.8354C16.8816 46.6709 17.3531 46.5225 17.8378 46.3889C18.321 46.2567 18.813 46.1392 19.3153 46.0378C19.8162 45.938 20.3229 45.8528 20.837 45.7852C21.351 45.7176 21.868 45.6662 22.3894 45.6325C22.9094 45.5972 23.4322 45.5811 23.9566 45.5811C24.4795 45.5811 25.0023 45.5972 25.5238 45.6325C26.0437 45.6662 26.5622 45.7176 27.0748 45.7852C27.5888 45.8528 28.0955 45.938 28.5978 46.0378C29.0987 46.1392 29.5907 46.2567 30.0739 46.3889C30.5586 46.5225 31.0316 46.6709 31.4928 46.8354C31.9539 46.9999 32.4034 47.1776 32.8381 47.3715C33.2743 47.5639 33.6944 47.771 34.0983 47.9927C34.5037 48.2131 34.8914 48.4466 35.2616 48.6919C35.6317 48.9386 35.9827 49.1957 36.3147 49.4644C36.6481 49.7332 36.9594 50.0123 37.2503 50.3016C37.5411 50.591 37.8099 50.8891 38.0566 51.1961C38.3034 51.5031 38.5266 51.8174 38.7278 52.139C38.9276 52.4607 39.1038 52.7867 39.2566 53.1202C39.4078 53.4536 39.5356 53.7899 39.637 54.1321C39.7398 54.4729 39.8162 54.8166 39.8676 55.1632C39.919 55.5083 39.9439 55.8564 39.9439 56.2045Z" fill="#BB94C5"/>
<path d="M16.7011 57.6763C16.7011 57.8701 16.6629 58.0567 16.5895 58.2358C16.516 58.415 16.4103 58.5737 16.2737 58.7103C16.1371 58.8468 15.9799 58.9526 15.8022 59.0275C15.623 59.1009 15.438 59.1391 15.2456 59.1391C15.0517 59.1391 14.8666 59.1009 14.6874 59.0275C14.5097 58.9526 14.3526 58.8468 14.216 58.7103C14.0794 58.5737 13.9736 58.415 13.9002 58.2358C13.8268 58.0567 13.79 57.8701 13.79 57.6763C13.79 57.4824 13.8268 57.2958 13.9002 57.1167C13.9736 56.9375 14.0794 56.7803 14.216 56.6423C14.3526 56.5057 14.5097 56.3999 14.6874 56.3265C14.8666 56.2516 15.0517 56.2148 15.2456 56.2148C15.438 56.2148 15.623 56.2516 15.8022 56.3265C15.9799 56.3999 16.1371 56.5057 16.2737 56.6423C16.4103 56.7803 16.516 56.9375 16.5895 57.1167C16.6629 57.2958 16.7011 57.4824 16.7011 57.6763Z" fill="#343A46"/>
<path d="M33.9096 57.4614C33.9096 57.6553 33.8714 57.8418 33.798 58.021C33.7245 58.2002 33.6188 58.3588 33.4822 58.4954C33.3456 58.632 33.1884 58.7378 33.0107 58.8127C32.8315 58.8861 32.6465 58.9243 32.4541 58.9243C32.2602 58.9243 32.0751 58.8861 31.8959 58.8127C31.7182 58.7378 31.5611 58.632 31.4245 58.4954C31.2879 58.3588 31.1821 58.2002 31.1087 58.021C31.0353 57.8418 30.9985 57.6553 30.9985 57.4614C30.9985 57.2675 31.0353 57.081 31.1087 56.9018C31.1821 56.7226 31.2879 56.5655 31.4245 56.4274C31.5611 56.2908 31.7182 56.1851 31.8959 56.1116C32.0751 56.0367 32.2602 56 32.4541 56C32.6465 56 32.8315 56.0367 33.0107 56.1116C33.1884 56.1851 33.3456 56.2908 33.4822 56.4274C33.6188 56.5655 33.7245 56.7226 33.798 56.9018C33.8714 57.081 33.9096 57.2675 33.9096 57.4614Z" fill="#343A46"/>
<path d="M42.3704 41.8229C42.3704 39.8739 40.9575 38.2832 39.2332 38.2832C39.2332 38.2832 30.2841 43.7514 23.9567 43.7514C17.6278 43.7514 8.67875 38.2935 8.67875 38.2935C6.95444 38.2935 5.5415 39.8856 5.5415 41.8346C5.5415 41.8346 19.546 61.8346 23.9567 61.8346C28.3659 61.8243 42.3704 41.8229 42.3704 41.8229Z" fill="#593B9B"/>
<path d="M20.2689 77.5265C17.9615 77.5265 16.0859 75.4467 16.0859 72.8808C16.0859 72.5768 16.3239 72.3389 16.625 72.3389C16.9275 72.3389 17.164 72.5768 17.164 72.8808C17.164 74.8401 18.5549 76.4425 20.2689 76.4425C21.983 76.4425 23.3739 74.8401 23.3739 72.8808C23.3739 72.5768 23.6118 72.3389 23.9129 72.3389C24.2155 72.3389 24.4519 72.5768 24.4519 72.8808C24.4519 75.4365 22.5764 77.5265 20.2689 77.5265Z" fill="#593B9B"/>
<path d="M34.8124 73.4874C32.505 73.4874 30.6294 71.4077 30.6294 68.8418C30.6294 68.5377 30.8673 68.2998 31.1684 68.2998C31.471 68.2998 31.7075 68.5377 31.7075 68.8418C31.7075 70.8011 33.0984 72.4035 34.8124 72.4035C36.5264 72.4035 37.9173 70.8011 37.9173 68.8418C37.9173 68.5377 38.1553 68.2998 38.4564 68.2998C38.7589 68.2998 38.9954 68.5377 38.9954 68.8418C38.9954 71.4077 37.1198 73.4874 34.8124 73.4874Z" fill="#593B9B"/>
<path d="M26.1337 85.2682C23.8277 85.2682 21.9507 83.1899 21.9507 80.6225C21.9507 80.32 22.1886 80.082 22.4897 80.082C22.7923 80.082 23.0287 80.32 23.0287 80.6225C23.0287 82.5833 24.4196 84.1857 26.1337 84.1857C27.8477 84.1857 29.2386 82.5833 29.2386 80.6225C29.2386 80.32 29.4765 80.082 29.7776 80.082C30.0802 80.082 30.3167 80.32 30.3167 80.6225C30.3167 83.1782 28.4411 85.2682 26.1337 85.2682Z" fill="#593B9B"/>
<path d="M33.4008 85.2682C31.0934 85.2682 29.2178 83.1899 29.2178 80.6225C29.2178 80.32 29.4542 80.082 29.7568 80.082C30.0579 80.082 30.2958 80.32 30.2958 80.6225C30.2958 82.5833 31.6867 84.1857 33.4008 84.1857C35.1148 84.1857 36.5057 82.5833 36.5057 80.6225C36.5057 80.32 36.7422 80.082 37.0448 80.082C37.3459 80.082 37.5838 80.32 37.5838 80.6225C37.5941 83.1782 35.7082 85.2682 33.4008 85.2682Z" fill="#593B9B"/>
<path d="M12.7768 77.5265C10.4693 77.5265 8.59375 75.4467 8.59375 72.8808C8.59375 72.5768 8.83022 72.3389 9.13278 72.3389C9.43388 72.3389 9.67181 72.5768 9.67181 72.8808C9.67181 74.8401 11.0627 76.4425 12.7768 76.4425C14.4908 76.4425 15.8817 74.8401 15.8817 72.8808C15.8817 72.5768 16.1182 72.3389 16.4207 72.3389C16.7218 72.3389 16.9598 72.5768 16.9598 72.8808C16.9598 75.4365 15.0842 77.5265 12.7768 77.5265Z" fill="#593B9B"/>
<path d="M18.1128 57.5796C20.5069 60.1675 22.663 63.5251 23.9672 63.5133C25.2495 63.5031 27.504 59.9619 29.8217 57.5796H18.1128Z" fill="#7B2C2D"/>
<path d="M23.2476 17.0595C23.2696 12.7825 23.4077 9.83769 26.7535 6.81206C30.3607 3.54997 33.9577 2.88756 38.6973 2.88022C44.7648 2.87141 50.6838 3.62634 56.7542 3.62634C59.3304 3.62634 62.1371 3.95094 64.6766 3.46772C67.5715 2.91841 69.9289 0.966438 72.4066 0C69.356 7.25562 59.9854 6.92516 59.9854 6.92516C59.9854 6.92516 61.1266 8.28522 66.4376 8.67884C56.7835 12.6665 49.1534 11.5972 49.1534 11.5972C49.1534 11.5972 49.6763 14.9666 55.8039 15.7597C55.7275 15.7421 51.9925 17.0155 46.1571 16.8627C44.59 16.8216 42.7996 16.4838 41.2721 16.074C38.9 15.4395 36.8071 14.1999 34.6128 13.1189C32.5477 12.1025 30.2829 11.1449 27.9769 11.9542C25.0365 12.9852 24.7134 15.4733 23.4958 17.8071L23.2476 17.0595Z" fill="#EF2B38"/>
<path d="M41.5464 59.5007C41.7461 57.8924 41.8548 56.2342 41.8548 54.5378C41.8548 39.746 33.8781 27.761 24.036 27.761C14.1953 27.761 6.22443 39.746 6.22443 54.5378C6.22443 56.2283 6.32577 57.888 6.52993 59.4948C3.28693 55.3353 1.33496 50.0008 1.33496 44.1831C1.33496 30.8997 11.5031 20.1294 24.036 20.1294C36.5747 20.1294 46.7414 30.8997 46.7414 44.1831C46.7414 50.0067 44.7938 55.3412 41.5464 59.5007Z" fill="#7A7C81"/>
<path d="M26.7738 26.2629C26.7738 28.0606 25.5504 29.5191 24.039 29.5191C22.5262 29.5191 21.3027 28.0606 21.3027 26.2629V19.1703C21.3027 17.3711 22.5262 15.9141 24.039 15.9141C25.5504 15.9141 26.7738 17.3711 26.7738 19.1703V26.2629Z" fill="#7A7C81"/>
<path d="M44.9671 30.9819C40.7488 30.011 28.686 27.335 24.0389 27.335C19.3903 27.335 7.32742 30.011 3.10917 30.9819C2.2896 31.1699 1.58754 32.0658 1.5376 32.9794L0.872259 45.3565C0.823791 46.2716 1.45095 47.1528 2.27345 47.3276C6.90735 48.3072 20.953 51.208 24.0389 51.0553C27.1232 51.208 41.1689 48.3072 45.8043 47.3276C46.6253 47.1528 47.2539 46.2716 47.204 45.3565L46.5401 32.9794C46.4887 32.0658 45.7866 31.1699 44.9671 30.9819Z" fill="#BCBCBE"/>
<path d="M22.7261 42.5159C22.7261 43.9157 21.7729 45.0481 20.5994 45.0481C19.4259 45.0481 18.4727 43.9157 18.4727 42.5159V35.7509C18.4727 34.3541 19.4259 33.2188 20.5994 33.2188C21.7729 33.2188 22.7261 34.3541 22.7261 35.7509V42.5159Z" fill="#63686D"/>
<path d="M20.5991 44.2489C19.7957 44.2489 19.1436 43.4705 19.1436 42.5158V35.7507C19.1436 34.7945 19.7957 34.0176 20.5991 34.0176C21.401 34.0176 22.0546 34.7945 22.0546 35.7507V42.5158C22.0546 43.4705 21.401 44.2489 20.5991 44.2489Z" fill="#3C3C3E"/>
<path d="M16.0782 42.5159C16.0782 43.9157 15.1265 45.0481 13.9515 45.0481C12.7765 45.0481 11.8247 43.9157 11.8247 42.5159V35.7509C11.8247 34.3541 12.7765 33.2188 13.9515 33.2188C15.1265 33.2188 16.0782 34.3541 16.0782 35.7509V42.5159Z" fill="#63686D"/>
<path d="M13.9516 44.2489C13.1482 44.2489 12.4961 43.4705 12.4961 42.5158V35.7507C12.4961 34.7945 13.1482 34.0176 13.9516 34.0176C14.7536 34.0176 15.4057 34.7945 15.4057 35.7507V42.5158C15.4057 43.4705 14.7536 44.2489 13.9516 44.2489Z" fill="#3C3C3E"/>
<path d="M9.43074 42.5159C9.43074 43.9157 8.47899 45.0481 7.30399 45.0481C6.12899 45.0481 5.17871 43.9157 5.17871 42.5159V35.7509C5.17871 34.3541 6.12899 33.2188 7.30399 33.2188C8.47899 33.2188 9.43074 34.3541 9.43074 35.7509V42.5159Z" fill="#63686D"/>
<path d="M7.30417 44.2489C6.50076 44.2489 5.84863 43.4705 5.84863 42.5158V35.7507C5.84863 34.7945 6.50076 34.0176 7.30417 34.0176C8.10611 34.0176 8.7597 34.7945 8.7597 35.7507V42.5158C8.7597 43.4705 8.10611 44.2489 7.30417 44.2489Z" fill="#3C3C3E"/>
<path d="M29.3736 42.5159C29.3736 43.9157 28.4219 45.0481 27.2469 45.0481C26.0733 45.0481 25.1201 43.9157 25.1201 42.5159V35.7509C25.1201 34.3541 26.0733 33.2188 27.2469 33.2188C28.4219 33.2188 29.3736 34.3541 29.3736 35.7509V42.5159Z" fill="#63686D"/>
<path d="M27.2465 44.2489C26.4446 44.2489 25.7925 43.4705 25.7925 42.5158V35.7507C25.7925 34.7945 26.4446 34.0176 27.2465 34.0176C28.0485 34.0176 28.7021 34.7945 28.7021 35.7507V42.5158C28.7021 43.4705 28.0485 44.2489 27.2465 44.2489Z" fill="#3C3C3E"/>
<path d="M36.0211 42.5159C36.0211 43.9157 35.0679 45.0481 33.8943 45.0481C32.7208 45.0481 31.7676 43.9157 31.7676 42.5159V35.7509C31.7676 34.3541 32.7208 33.2188 33.8943 33.2188C35.0679 33.2188 36.0211 34.3541 36.0211 35.7509V42.5159Z" fill="#63686D"/>
<path d="M33.8945 44.2489C33.0926 44.2489 32.439 43.4705 32.439 42.5158V35.7507C32.439 34.7945 33.0926 34.0176 33.8945 34.0176C34.6964 34.0176 35.35 34.7945 35.35 35.7507V42.5158C35.35 43.4705 34.6964 44.2489 33.8945 44.2489Z" fill="#3C3C3E"/>
<path d="M42.6671 42.5159C42.6671 43.9157 41.7168 45.0481 40.5418 45.0481C39.3668 45.0481 38.415 43.9157 38.415 42.5159V35.7509C38.415 34.3541 39.3668 33.2188 40.5418 33.2188C41.7168 33.2188 42.6671 34.3541 42.6671 35.7509V42.5159Z" fill="#63686D"/>
<path d="M40.542 44.2489C39.7386 44.2489 39.0864 43.4705 39.0864 42.5158V35.7507C39.0864 34.7945 39.7386 34.0176 40.542 34.0176C41.3439 34.0176 41.9975 34.7945 41.9975 35.7507V42.5158C41.9975 43.4705 41.3439 44.2489 40.542 44.2489Z" fill="#3C3C3E"/>
<path d="M56.359 5.5475C55.9889 5.57393 55.4557 5.6224 54.8006 5.62534C53.4949 5.665 51.7148 5.60037 49.823 5.42706C47.9298 5.26109 45.9206 5.01728 44.1272 4.85425C43.6998 4.81459 43.2842 4.78081 42.8861 4.75143C42.115 4.6824 41.2646 4.63687 40.3613 4.63246C40.1543 4.62953 39.9574 4.62806 39.7856 4.631C39.768 4.631 39.7489 4.63246 39.7312 4.63246C39.6049 4.63393 39.4727 4.63687 39.3288 4.64275C38.8838 4.65743 38.449 4.68387 38.029 4.72353C38.0231 4.72353 38.0187 4.72353 38.0128 4.725C38.0069 4.725 37.9996 4.72646 37.9937 4.72646C37.6442 4.76025 37.3019 4.79843 36.9759 4.8469C36.9245 4.85278 36.876 4.85718 36.8231 4.86453C36.406 4.91153 35.9698 5.00846 35.5174 5.08484C35.4043 5.1054 35.2912 5.12596 35.1767 5.148C35.0636 5.1759 34.9505 5.20381 34.8359 5.23318C34.6068 5.29046 34.3762 5.34921 34.1427 5.40796C33.6697 5.52546 33.2144 5.65325 32.7385 5.80012C31.7956 6.09093 30.8497 6.44637 29.9758 6.88553C29.1004 7.32175 28.3014 7.84609 27.6464 8.4189C26.9884 8.98878 26.4816 9.60272 26.1042 10.1476C25.737 10.7028 25.4917 11.186 25.3434 11.5297C25.2009 11.8749 25.1201 12.0673 25.1201 12.0673C25.1201 12.0673 25.2185 11.8837 25.3948 11.5562C25.5754 11.2316 25.8633 10.7777 26.2716 10.2739C26.6902 9.77897 27.2322 9.237 27.9078 8.75231C28.5834 8.26615 29.3839 7.84021 30.2505 7.49946C31.117 7.15578 32.0453 6.89434 32.9735 6.68871C33.4332 6.5859 33.9135 6.4919 34.3659 6.41553C34.5936 6.37587 34.8183 6.33768 35.0401 6.29803C35.1517 6.27893 35.2604 6.25984 35.3705 6.24075C35.4807 6.229 35.5908 6.21725 35.6995 6.2055C36.0638 6.17025 36.4104 6.12471 36.7512 6.09534C37.6677 6.03512 38.6987 5.98665 39.8047 5.97637C39.8091 5.97637 39.815 5.97637 39.8179 5.9749C39.8443 5.97637 39.8752 5.9749 39.9016 5.9749C40.871 5.96462 41.7978 5.96609 42.6408 5.96462C43.0918 5.96903 43.5662 5.97637 44.0641 5.98665C45.8457 6.02337 47.8769 6.09975 49.7937 6.09828C51.7104 6.10562 53.5096 5.99987 54.8153 5.8339C55.4704 5.76928 55.9991 5.66793 56.3663 5.60478C56.7335 5.54162 56.9391 5.50637 56.9391 5.50637C56.9391 5.50637 56.7306 5.52106 56.359 5.5475Z" fill="#C41F26"/>
<path d="M15.2603 24.011C15.2486 23.9831 15.3044 23.9258 15.416 23.8465C15.5291 23.7672 15.7039 23.6761 15.9213 23.5675C15.9756 23.541 16.0329 23.5146 16.0931 23.4852C16.1533 23.4558 16.215 23.4265 16.2811 23.4015C16.4133 23.3471 16.5558 23.2913 16.7056 23.2341C16.7805 23.2061 16.8583 23.1768 16.9362 23.1474C17.0155 23.1195 17.0977 23.096 17.18 23.0681C17.3474 23.0167 17.5207 22.9638 17.6985 22.9124C17.8762 22.8625 18.1126 22.8111 18.3873 22.7479C18.4563 22.7332 18.5283 22.7156 18.6017 22.7024C18.6752 22.6877 18.7516 22.6745 18.8294 22.6598C18.9866 22.6333 19.1496 22.604 19.32 22.5731C20 22.4718 20.7726 22.3778 21.5025 22.3425C21.5936 22.3366 21.6846 22.3308 21.7728 22.3264C21.8624 22.3205 21.952 22.319 22.0386 22.3161C22.2134 22.3102 22.3823 22.3058 22.5439 22.3014C22.8685 22.2955 23.1651 22.2999 23.4148 22.2999C23.9142 22.3131 24.2329 22.3234 24.2329 22.3234C24.2329 22.3234 23.9157 22.3411 23.4163 22.369C23.1681 22.391 22.8743 22.4116 22.5527 22.4424C22.3926 22.46 22.2251 22.4791 22.0518 22.4982C21.9666 22.5085 21.8785 22.5158 21.7904 22.5276C21.7023 22.5408 21.6141 22.5526 21.5246 22.5658C20.8063 22.6554 20.0514 22.8052 19.389 22.9447C19.2245 22.9844 19.0659 23.0226 18.9146 23.0578C18.8382 23.0754 18.7648 23.0931 18.6928 23.1107C18.6223 23.1268 18.5533 23.1474 18.4872 23.165C18.2199 23.237 17.9907 23.2987 17.816 23.3457C17.6426 23.3956 17.4723 23.4441 17.3078 23.4896C17.2255 23.5116 17.1433 23.5322 17.0654 23.5557C16.9876 23.5807 16.9097 23.6027 16.8348 23.6262C16.6865 23.6717 16.5425 23.7129 16.4074 23.751C16.3399 23.7687 16.2752 23.7892 16.2135 23.8098C16.1519 23.8274 16.0916 23.8465 16.0344 23.8641C15.8067 23.9332 15.6172 23.9772 15.485 24.0066C15.3529 24.0375 15.2735 24.0404 15.2603 24.011Z" fill="#63686D"/>
<path d="M20.3877 22.5877C20.3833 22.5583 20.3054 22.5363 20.1688 22.5304C20.0322 22.5275 19.8354 22.5348 19.5945 22.5554C19.5329 22.5612 19.4697 22.5671 19.4036 22.573C19.339 22.5803 19.2714 22.5906 19.2009 22.6009C19.0599 22.6229 18.9086 22.6464 18.7515 22.6729C18.5929 22.6978 18.4284 22.7346 18.2594 22.7742C18.0891 22.8139 17.9128 22.855 17.7336 22.902C17.5559 22.9534 17.3253 23.0254 17.0565 23.1106C16.989 23.1311 16.9199 23.1561 16.8494 23.1825C16.7789 23.209 16.7055 23.2354 16.6306 23.2633C16.4823 23.3191 16.3251 23.3749 16.165 23.4381C16.0064 23.5071 15.8433 23.5776 15.6759 23.6496C15.5937 23.6863 15.5085 23.7216 15.4248 23.7597C15.341 23.8009 15.2573 23.842 15.1736 23.8831C15.0076 23.9654 14.8387 24.0476 14.6728 24.1328C14.5097 24.2253 14.3467 24.3164 14.1881 24.406C14.1073 24.4515 14.028 24.4941 13.9516 24.5411C13.8752 24.5896 13.8003 24.6366 13.7269 24.6836C13.5785 24.7791 13.4361 24.8701 13.298 24.9568C13.0322 25.1462 12.7928 25.3196 12.5901 25.4679C12.2023 25.7837 11.9556 25.9849 11.9556 25.9849C11.9556 25.9849 12.2185 25.8057 12.6297 25.5237C12.8442 25.3945 13.0968 25.2417 13.3729 25.0772C13.5154 25.0023 13.6637 24.923 13.8165 24.8422C13.8928 24.8011 13.9707 24.76 14.0485 24.7188C14.1278 24.6792 14.2101 24.6425 14.2909 24.6043C14.4554 24.5279 14.6213 24.4501 14.7873 24.3722C14.9562 24.3002 15.1281 24.2327 15.2984 24.1637C15.3822 24.1284 15.4673 24.0946 15.5511 24.0594C15.6348 24.0285 15.7214 23.9992 15.8037 23.9698C15.9726 23.9096 16.1371 23.8508 16.2957 23.7935C16.4558 23.7407 16.613 23.6951 16.7613 23.6481C16.8348 23.6246 16.9082 23.6026 16.9787 23.5806C17.0477 23.5585 17.1153 23.5365 17.1829 23.5203C17.4502 23.4484 17.6778 23.3852 17.8511 23.3338C18.5532 23.1517 19.1877 22.9872 19.6489 22.8682C19.8795 22.808 20.066 22.7522 20.1953 22.7037C20.323 22.6567 20.3921 22.62 20.3877 22.5877Z" fill="#63686D"/>
<path d="M43.1254 31.6238C43.1048 31.6825 42.8302 31.6429 42.391 31.5827C41.9519 31.5195 41.3409 31.4373 40.6682 31.3212C40.4978 31.2919 40.2775 31.2507 40.0205 31.2023C39.8927 31.1758 39.7546 31.1494 39.6107 31.12C39.4653 31.0921 39.314 31.0627 39.1583 31.0246C38.8469 30.9526 38.5135 30.8747 38.1772 30.7969C38.0083 30.7572 37.8379 30.7205 37.6705 30.675C37.5016 30.6324 37.3341 30.5883 37.1696 30.5457C36.8392 30.4606 36.5204 30.3768 36.2267 30.3005C35.9359 30.2182 35.6686 30.1433 35.4439 30.0801C34.9944 29.9524 34.708 29.8716 34.708 29.8716C34.708 29.8716 35.0003 29.9259 35.46 30.0111C35.6891 30.0552 35.9609 30.1066 36.2575 30.1624C36.5557 30.2138 36.8803 30.2696 37.2152 30.3269C37.3826 30.3563 37.553 30.3856 37.7234 30.415C37.8937 30.4459 38.067 30.4694 38.2359 30.4973C38.5767 30.5501 38.913 30.603 39.2273 30.653C39.3845 30.6794 39.5373 30.7 39.6827 30.7205C39.8281 30.7411 39.9661 30.7602 40.0954 30.7793C40.3524 30.816 40.5727 30.8512 40.7416 30.8791C41.4173 30.9952 42.0283 31.1288 42.4615 31.2728C42.8978 31.4167 43.146 31.565 43.1254 31.6238Z" fill="#63686D"/>
<path d="M38.2314 30.6512C38.2064 30.7702 39.2771 31.0962 40.6328 31.3151C40.718 31.3283 40.8149 31.3445 40.9236 31.3621C41.0308 31.3797 41.1498 31.3973 41.279 31.4179C41.5361 31.4576 41.8298 31.5016 42.1397 31.5574C42.4482 31.6132 42.7772 31.6793 43.1003 31.7763C43.422 31.8717 43.7392 31.9981 44.0183 32.1684C44.1563 32.2551 44.2871 32.3506 44.4016 32.4578C44.5162 32.565 44.6205 32.6781 44.7042 32.7985C44.8775 33.0379 44.9832 33.292 45.0552 33.5109C45.0919 33.621 45.114 33.7238 45.1375 33.8149C45.1551 33.906 45.1698 33.9853 45.1801 34.0514C45.1977 34.1836 45.2094 34.257 45.2094 34.257C45.2094 34.257 45.205 34.1821 45.2006 34.0499C45.1947 33.9823 45.1874 33.9016 45.1771 33.8076C45.1639 33.715 45.1492 33.6078 45.1213 33.4932C45.0699 33.2627 44.9832 32.9895 44.8217 32.7207C44.7438 32.5856 44.644 32.4548 44.5309 32.3285C44.4178 32.2037 44.2856 32.0891 44.1431 31.9834C43.8582 31.7733 43.5292 31.6118 43.1987 31.4855C42.8668 31.3592 42.5319 31.2652 42.2176 31.1873C41.9047 31.1095 41.611 31.0478 41.354 30.9949C41.2247 30.9699 41.1057 30.9464 40.997 30.9244C40.8884 30.9053 40.7914 30.8877 40.7077 30.873C39.3579 30.6556 38.2564 30.5278 38.2314 30.6512Z" fill="#63686D"/>
<path d="M8.15299 47.2542C8.12949 47.3761 6.90161 47.2175 5.41377 46.9002C5.25955 46.8679 5.06274 46.8224 4.84683 46.7739C4.62505 46.724 4.36949 46.674 4.09189 46.6065C3.8143 46.5389 3.51467 46.4581 3.21211 46.3318C3.06083 46.2716 2.90955 46.1894 2.76414 46.0998C2.6202 46.0014 2.48361 45.8839 2.37052 45.7399L2.37786 45.7473C2.2207 45.5607 2.10614 45.3448 2.02683 45.1275C1.94752 44.9071 1.9108 44.6854 1.88289 44.4709C1.83883 44.042 1.85352 43.6455 1.8682 43.3077C1.88583 42.9699 1.90345 42.6908 1.90639 42.4925C1.9108 42.3941 1.90933 42.3177 1.9108 42.2649C1.9108 42.212 1.9108 42.1841 1.9108 42.1841C1.9108 42.1841 1.91227 42.212 1.91667 42.2649C1.92108 42.3163 1.92842 42.3941 1.93283 42.4925C1.94458 42.6893 1.95045 42.9728 1.96073 43.3091C1.97248 43.6455 1.98864 44.0376 2.06355 44.4445C2.10467 44.6457 2.15608 44.8513 2.24127 45.0423C2.32792 45.2332 2.44102 45.4095 2.58202 45.5578L2.58936 45.5651C2.68483 45.6694 2.80086 45.7575 2.92717 45.8325C3.05936 45.9015 3.19302 45.9646 3.33549 46.0102C3.61455 46.1071 3.90389 46.1673 4.17414 46.2173C4.44586 46.2672 4.70143 46.3054 4.93055 46.3465C5.16408 46.3906 5.35502 46.4302 5.51071 46.4625C6.99415 46.7783 8.17649 47.1338 8.15299 47.2542Z" fill="#63686D"/>
<path d="M2.79218 45.9292C2.78337 45.941 2.79071 45.9645 2.81421 45.9983C2.83771 46.0306 2.8803 46.0688 2.93759 46.1172C3.05362 46.2054 3.23868 46.3141 3.47809 46.4095C3.71749 46.505 4.01124 46.5887 4.33437 46.6636C4.65602 46.7341 5.00706 46.8105 5.37571 46.8927C5.74731 46.9721 6.35243 47.0866 7.05009 47.2129C7.74921 47.3392 8.53793 47.4876 9.28699 47.5919C10.7807 47.8122 12.0864 48.0046 12.0864 48.0046C12.0864 48.0046 10.8013 47.7094 9.32959 47.3716C8.59228 47.2129 7.81678 47.0102 7.12793 46.8428C6.44056 46.6754 5.84277 46.5344 5.47265 46.4536C5.28759 46.4154 5.10546 46.3772 4.92481 46.3434C4.74562 46.3111 4.57524 46.2847 4.41368 46.2582C4.09202 46.2068 3.80709 46.1584 3.57062 46.1055C3.09915 46.0056 2.82596 45.8808 2.79218 45.9292Z" fill="#63686D"/>
<path d="M23.2476 17.0595C23.2696 12.7825 23.4077 9.83769 26.7535 6.81206C30.3607 3.54997 33.9577 2.88756 38.6973 2.88022C44.7648 2.87141 50.6838 3.62634 56.7542 3.62634C59.3304 3.62634 62.1371 3.95094 64.6766 3.46772C67.5715 2.91841 69.9289 0.966438 72.4066 0C69.356 7.25562 59.9854 6.92516 59.9854 6.92516C59.9854 6.92516 61.1266 8.28522 66.4376 8.67884C56.7835 12.6665 49.1534 11.5972 49.1534 11.5972C49.1534 11.5972 49.6763 14.9666 55.8039 15.7597C55.7275 15.7421 51.9925 17.0155 46.1571 16.8627C44.59 16.8216 42.7996 16.4838 41.2721 16.074C38.9 15.4395 36.8071 14.1999 34.6128 13.1189C32.5477 12.1025 30.2829 11.1449 27.9769 11.9542C25.0365 12.9852 24.7134 15.4733 23.4958 17.8071L23.2476 17.0595Z" fill="#EF2B38"/>
<path d="M41.5464 59.5007C41.7461 57.8924 41.8548 56.2342 41.8548 54.5378C41.8548 39.746 33.8781 27.761 24.036 27.761C14.1953 27.761 6.22443 39.746 6.22443 54.5378C6.22443 56.2283 6.32577 57.888 6.52993 59.4948C3.28693 55.3353 1.33496 50.0008 1.33496 44.1831C1.33496 30.8997 11.5031 20.1294 24.036 20.1294C36.5747 20.1294 46.7414 30.8997 46.7414 44.1831C46.7414 50.0067 44.7938 55.3412 41.5464 59.5007Z" fill="#7A7C81"/>
<path d="M26.7738 26.2629C26.7738 28.0606 25.5504 29.5191 24.039 29.5191C22.5262 29.5191 21.3027 28.0606 21.3027 26.2629V19.1703C21.3027 17.3711 22.5262 15.9141 24.039 15.9141C25.5504 15.9141 26.7738 17.3711 26.7738 19.1703V26.2629Z" fill="#7A7C81"/>
<path d="M44.9671 30.9819C40.7488 30.011 28.686 27.335 24.0389 27.335C19.3903 27.335 7.32742 30.011 3.10917 30.9819C2.2896 31.1699 1.58754 32.0658 1.5376 32.9794L0.872259 45.3565C0.823791 46.2716 1.45095 47.1528 2.27345 47.3276C6.90735 48.3072 20.953 51.208 24.0389 51.0553C27.1232 51.208 41.1689 48.3072 45.8043 47.3276C46.6253 47.1528 47.2539 46.2716 47.204 45.3565L46.5401 32.9794C46.4887 32.0658 45.7866 31.1699 44.9671 30.9819Z" fill="#BCBCBE"/>
<path d="M22.7261 42.5159C22.7261 43.9157 21.7729 45.0481 20.5994 45.0481C19.4259 45.0481 18.4727 43.9157 18.4727 42.5159V35.7509C18.4727 34.3541 19.4259 33.2188 20.5994 33.2188C21.7729 33.2188 22.7261 34.3541 22.7261 35.7509V42.5159Z" fill="#63686D"/>
<path d="M20.5991 44.2489C19.7957 44.2489 19.1436 43.4705 19.1436 42.5158V35.7507C19.1436 34.7945 19.7957 34.0176 20.5991 34.0176C21.401 34.0176 22.0546 34.7945 22.0546 35.7507V42.5158C22.0546 43.4705 21.401 44.2489 20.5991 44.2489Z" fill="#3C3C3E"/>
<path d="M16.0782 42.5159C16.0782 43.9157 15.1265 45.0481 13.9515 45.0481C12.7765 45.0481 11.8247 43.9157 11.8247 42.5159V35.7509C11.8247 34.3541 12.7765 33.2188 13.9515 33.2188C15.1265 33.2188 16.0782 34.3541 16.0782 35.7509V42.5159Z" fill="#63686D"/>
<path d="M13.9516 44.2489C13.1482 44.2489 12.4961 43.4705 12.4961 42.5158V35.7507C12.4961 34.7945 13.1482 34.0176 13.9516 34.0176C14.7536 34.0176 15.4057 34.7945 15.4057 35.7507V42.5158C15.4057 43.4705 14.7536 44.2489 13.9516 44.2489Z" fill="#3C3C3E"/>
<path d="M9.43074 42.5159C9.43074 43.9157 8.47899 45.0481 7.30399 45.0481C6.12899 45.0481 5.17871 43.9157 5.17871 42.5159V35.7509C5.17871 34.3541 6.12899 33.2188 7.30399 33.2188C8.47899 33.2188 9.43074 34.3541 9.43074 35.7509V42.5159Z" fill="#63686D"/>
<path d="M7.30417 44.2489C6.50076 44.2489 5.84863 43.4705 5.84863 42.5158V35.7507C5.84863 34.7945 6.50076 34.0176 7.30417 34.0176C8.10611 34.0176 8.7597 34.7945 8.7597 35.7507V42.5158C8.7597 43.4705 8.10611 44.2489 7.30417 44.2489Z" fill="#3C3C3E"/>
<path d="M29.3736 42.5159C29.3736 43.9157 28.4219 45.0481 27.2469 45.0481C26.0733 45.0481 25.1201 43.9157 25.1201 42.5159V35.7509C25.1201 34.3541 26.0733 33.2188 27.2469 33.2188C28.4219 33.2188 29.3736 34.3541 29.3736 35.7509V42.5159Z" fill="#63686D"/>
<path d="M27.2465 44.2489C26.4446 44.2489 25.7925 43.4705 25.7925 42.5158V35.7507C25.7925 34.7945 26.4446 34.0176 27.2465 34.0176C28.0485 34.0176 28.7021 34.7945 28.7021 35.7507V42.5158C28.7021 43.4705 28.0485 44.2489 27.2465 44.2489Z" fill="#3C3C3E"/>
<path d="M36.0211 42.5159C36.0211 43.9157 35.0679 45.0481 33.8943 45.0481C32.7208 45.0481 31.7676 43.9157 31.7676 42.5159V35.7509C31.7676 34.3541 32.7208 33.2188 33.8943 33.2188C35.0679 33.2188 36.0211 34.3541 36.0211 35.7509V42.5159Z" fill="#63686D"/>
<path d="M33.8945 44.2489C33.0926 44.2489 32.439 43.4705 32.439 42.5158V35.7507C32.439 34.7945 33.0926 34.0176 33.8945 34.0176C34.6964 34.0176 35.35 34.7945 35.35 35.7507V42.5158C35.35 43.4705 34.6964 44.2489 33.8945 44.2489Z" fill="#3C3C3E"/>
<path d="M42.6671 42.5159C42.6671 43.9157 41.7168 45.0481 40.5418 45.0481C39.3668 45.0481 38.415 43.9157 38.415 42.5159V35.7509C38.415 34.3541 39.3668 33.2188 40.5418 33.2188C41.7168 33.2188 42.6671 34.3541 42.6671 35.7509V42.5159Z" fill="#63686D"/>
<path d="M40.542 44.2489C39.7386 44.2489 39.0864 43.4705 39.0864 42.5158V35.7507C39.0864 34.7945 39.7386 34.0176 40.542 34.0176C41.3439 34.0176 41.9975 34.7945 41.9975 35.7507V42.5158C41.9975 43.4705 41.3439 44.2489 40.542 44.2489Z" fill="#3C3C3E"/>
<path d="M56.359 5.5475C55.9889 5.57393 55.4557 5.6224 54.8006 5.62534C53.4949 5.665 51.7148 5.60037 49.823 5.42706C47.9298 5.26109 45.9206 5.01728 44.1272 4.85425C43.6998 4.81459 43.2842 4.78081 42.8861 4.75143C42.115 4.6824 41.2646 4.63687 40.3613 4.63246C40.1543 4.62953 39.9574 4.62806 39.7856 4.631C39.768 4.631 39.7489 4.63246 39.7312 4.63246C39.6049 4.63393 39.4727 4.63687 39.3288 4.64275C38.8838 4.65743 38.449 4.68387 38.029 4.72353C38.0231 4.72353 38.0187 4.72353 38.0128 4.725C38.0069 4.725 37.9996 4.72646 37.9937 4.72646C37.6442 4.76025 37.3019 4.79843 36.9759 4.8469C36.9245 4.85278 36.876 4.85718 36.8231 4.86453C36.406 4.91153 35.9698 5.00846 35.5174 5.08484C35.4043 5.1054 35.2912 5.12596 35.1767 5.148C35.0636 5.1759 34.9505 5.20381 34.8359 5.23318C34.6068 5.29046 34.3762 5.34921 34.1427 5.40796C33.6697 5.52546 33.2144 5.65325 32.7385 5.80012C31.7956 6.09093 30.8497 6.44637 29.9758 6.88553C29.1004 7.32175 28.3014 7.84609 27.6464 8.4189C26.9884 8.98878 26.4816 9.60272 26.1042 10.1476C25.737 10.7028 25.4917 11.186 25.3434 11.5297C25.2009 11.8749 25.1201 12.0673 25.1201 12.0673C25.1201 12.0673 25.2185 11.8837 25.3948 11.5562C25.5754 11.2316 25.8633 10.7777 26.2716 10.2739C26.6902 9.77897 27.2322 9.237 27.9078 8.75231C28.5834 8.26615 29.3839 7.84021 30.2505 7.49946C31.117 7.15578 32.0453 6.89434 32.9735 6.68871C33.4332 6.5859 33.9135 6.4919 34.3659 6.41553C34.5936 6.37587 34.8183 6.33768 35.0401 6.29803C35.1517 6.27893 35.2604 6.25984 35.3705 6.24075C35.4807 6.229 35.5908 6.21725 35.6995 6.2055C36.0638 6.17025 36.4104 6.12471 36.7512 6.09534C37.6677 6.03512 38.6987 5.98665 39.8047 5.97637C39.8091 5.97637 39.815 5.97637 39.8179 5.9749C39.8443 5.97637 39.8752 5.9749 39.9016 5.9749C40.871 5.96462 41.7978 5.96609 42.6408 5.96462C43.0918 5.96903 43.5662 5.97637 44.0641 5.98665C45.8457 6.02337 47.8769 6.09975 49.7937 6.09828C51.7104 6.10562 53.5096 5.99987 54.8153 5.8339C55.4704 5.76928 55.9991 5.66793 56.3663 5.60478C56.7335 5.54162 56.9391 5.50637 56.9391 5.50637C56.9391 5.50637 56.7306 5.52106 56.359 5.5475Z" fill="#C41F26"/>
<path d="M15.2603 24.011C15.2486 23.9831 15.3044 23.9258 15.416 23.8465C15.5291 23.7672 15.7039 23.6761 15.9213 23.5675C15.9756 23.541 16.0329 23.5146 16.0931 23.4852C16.1533 23.4558 16.215 23.4265 16.2811 23.4015C16.4133 23.3471 16.5558 23.2913 16.7056 23.2341C16.7805 23.2061 16.8583 23.1768 16.9362 23.1474C17.0155 23.1195 17.0977 23.096 17.18 23.0681C17.3474 23.0167 17.5207 22.9638 17.6985 22.9124C17.8762 22.8625 18.1126 22.8111 18.3873 22.7479C18.4563 22.7332 18.5283 22.7156 18.6017 22.7024C18.6752 22.6877 18.7516 22.6745 18.8294 22.6598C18.9866 22.6333 19.1496 22.604 19.32 22.5731C20 22.4718 20.7726 22.3778 21.5025 22.3425C21.5936 22.3366 21.6846 22.3308 21.7728 22.3264C21.8624 22.3205 21.952 22.319 22.0386 22.3161C22.2134 22.3102 22.3823 22.3058 22.5439 22.3014C22.8685 22.2955 23.1651 22.2999 23.4148 22.2999C23.9142 22.3131 24.2329 22.3234 24.2329 22.3234C24.2329 22.3234 23.9157 22.3411 23.4163 22.369C23.1681 22.391 22.8743 22.4116 22.5527 22.4424C22.3926 22.46 22.2251 22.4791 22.0518 22.4982C21.9666 22.5085 21.8785 22.5158 21.7904 22.5276C21.7023 22.5408 21.6141 22.5526 21.5246 22.5658C20.8063 22.6554 20.0514 22.8052 19.389 22.9447C19.2245 22.9844 19.0659 23.0226 18.9146 23.0578C18.8382 23.0754 18.7648 23.0931 18.6928 23.1107C18.6223 23.1268 18.5533 23.1474 18.4872 23.165C18.2199 23.237 17.9907 23.2987 17.816 23.3457C17.6426 23.3956 17.4723 23.4441 17.3078 23.4896C17.2255 23.5116 17.1433 23.5322 17.0654 23.5557C16.9876 23.5807 16.9097 23.6027 16.8348 23.6262C16.6865 23.6717 16.5425 23.7129 16.4074 23.751C16.3399 23.7687 16.2752 23.7892 16.2135 23.8098C16.1519 23.8274 16.0916 23.8465 16.0344 23.8641C15.8067 23.9332 15.6172 23.9772 15.485 24.0066C15.3529 24.0375 15.2735 24.0404 15.2603 24.011Z" fill="#63686D"/>
<path d="M20.3877 22.5877C20.3833 22.5583 20.3054 22.5363 20.1688 22.5304C20.0322 22.5275 19.8354 22.5348 19.5945 22.5554C19.5329 22.5612 19.4697 22.5671 19.4036 22.573C19.339 22.5803 19.2714 22.5906 19.2009 22.6009C19.0599 22.6229 18.9086 22.6464 18.7515 22.6729C18.5929 22.6978 18.4284 22.7346 18.2594 22.7742C18.0891 22.8139 17.9128 22.855 17.7336 22.902C17.5559 22.9534 17.3253 23.0254 17.0565 23.1106C16.989 23.1311 16.9199 23.1561 16.8494 23.1825C16.7789 23.209 16.7055 23.2354 16.6306 23.2633C16.4823 23.3191 16.3251 23.3749 16.165 23.4381C16.0064 23.5071 15.8433 23.5776 15.6759 23.6496C15.5937 23.6863 15.5085 23.7216 15.4248 23.7597C15.341 23.8009 15.2573 23.842 15.1736 23.8831C15.0076 23.9654 14.8387 24.0476 14.6728 24.1328C14.5097 24.2253 14.3467 24.3164 14.1881 24.406C14.1073 24.4515 14.028 24.4941 13.9516 24.5411C13.8752 24.5896 13.8003 24.6366 13.7269 24.6836C13.5785 24.7791 13.4361 24.8701 13.298 24.9568C13.0322 25.1462 12.7928 25.3196 12.5901 25.4679C12.2023 25.7837 11.9556 25.9849 11.9556 25.9849C11.9556 25.9849 12.2185 25.8057 12.6297 25.5237C12.8442 25.3945 13.0968 25.2417 13.3729 25.0772C13.5154 25.0023 13.6637 24.923 13.8165 24.8422C13.8928 24.8011 13.9707 24.76 14.0485 24.7188C14.1278 24.6792 14.2101 24.6425 14.2909 24.6043C14.4554 24.5279 14.6213 24.4501 14.7873 24.3722C14.9562 24.3002 15.1281 24.2327 15.2984 24.1637C15.3822 24.1284 15.4673 24.0946 15.5511 24.0594C15.6348 24.0285 15.7214 23.9992 15.8037 23.9698C15.9726 23.9096 16.1371 23.8508 16.2957 23.7935C16.4558 23.7407 16.613 23.6951 16.7613 23.6481C16.8348 23.6246 16.9082 23.6026 16.9787 23.5806C17.0477 23.5585 17.1153 23.5365 17.1829 23.5203C17.4502 23.4484 17.6778 23.3852 17.8511 23.3338C18.5532 23.1517 19.1877 22.9872 19.6489 22.8682C19.8795 22.808 20.066 22.7522 20.1953 22.7037C20.323 22.6567 20.3921 22.62 20.3877 22.5877Z" fill="#63686D"/>
<path d="M43.1254 31.6238C43.1048 31.6825 42.8302 31.6429 42.391 31.5827C41.9519 31.5195 41.3409 31.4373 40.6682 31.3212C40.4978 31.2919 40.2775 31.2507 40.0205 31.2023C39.8927 31.1758 39.7546 31.1494 39.6107 31.12C39.4653 31.0921 39.314 31.0627 39.1583 31.0246C38.8469 30.9526 38.5135 30.8747 38.1772 30.7969C38.0083 30.7572 37.8379 30.7205 37.6705 30.675C37.5016 30.6324 37.3341 30.5883 37.1696 30.5457C36.8392 30.4606 36.5204 30.3768 36.2267 30.3005C35.9359 30.2182 35.6686 30.1433 35.4439 30.0801C34.9944 29.9524 34.708 29.8716 34.708 29.8716C34.708 29.8716 35.0003 29.9259 35.46 30.0111C35.6891 30.0552 35.9609 30.1066 36.2575 30.1624C36.5557 30.2138 36.8803 30.2696 37.2152 30.3269C37.3826 30.3563 37.553 30.3856 37.7234 30.415C37.8937 30.4459 38.067 30.4694 38.2359 30.4973C38.5767 30.5501 38.913 30.603 39.2273 30.653C39.3845 30.6794 39.5373 30.7 39.6827 30.7205C39.8281 30.7411 39.9661 30.7602 40.0954 30.7793C40.3524 30.816 40.5727 30.8512 40.7416 30.8791C41.4173 30.9952 42.0283 31.1288 42.4615 31.2728C42.8978 31.4167 43.146 31.565 43.1254 31.6238Z" fill="#63686D"/>
<path d="M38.2314 30.6512C38.2064 30.7702 39.2771 31.0962 40.6328 31.3151C40.718 31.3283 40.8149 31.3445 40.9236 31.3621C41.0308 31.3797 41.1498 31.3973 41.279 31.4179C41.5361 31.4576 41.8298 31.5016 42.1397 31.5574C42.4482 31.6132 42.7772 31.6793 43.1003 31.7763C43.422 31.8717 43.7392 31.9981 44.0183 32.1684C44.1563 32.2551 44.2871 32.3506 44.4016 32.4578C44.5162 32.565 44.6205 32.6781 44.7042 32.7985C44.8775 33.0379 44.9832 33.292 45.0552 33.5109C45.0919 33.621 45.114 33.7238 45.1375 33.8149C45.1551 33.906 45.1698 33.9853 45.1801 34.0514C45.1977 34.1836 45.2094 34.257 45.2094 34.257C45.2094 34.257 45.205 34.1821 45.2006 34.0499C45.1947 33.9823 45.1874 33.9016 45.1771 33.8076C45.1639 33.715 45.1492 33.6078 45.1213 33.4932C45.0699 33.2627 44.9832 32.9895 44.8217 32.7207C44.7438 32.5856 44.644 32.4548 44.5309 32.3285C44.4178 32.2037 44.2856 32.0891 44.1431 31.9834C43.8582 31.7733 43.5292 31.6118 43.1987 31.4855C42.8668 31.3592 42.5319 31.2652 42.2176 31.1873C41.9047 31.1095 41.611 31.0478 41.354 30.9949C41.2247 30.9699 41.1057 30.9464 40.997 30.9244C40.8884 30.9053 40.7914 30.8877 40.7077 30.873C39.3579 30.6556 38.2564 30.5278 38.2314 30.6512Z" fill="#63686D"/>
<path d="M8.15299 47.2542C8.12949 47.3761 6.90161 47.2175 5.41377 46.9002C5.25955 46.8679 5.06274 46.8224 4.84683 46.7739C4.62505 46.724 4.36949 46.674 4.09189 46.6065C3.8143 46.5389 3.51467 46.4581 3.21211 46.3318C3.06083 46.2716 2.90955 46.1894 2.76414 46.0998C2.6202 46.0014 2.48361 45.8839 2.37052 45.7399L2.37786 45.7473C2.2207 45.5607 2.10614 45.3448 2.02683 45.1275C1.94752 44.9071 1.9108 44.6854 1.88289 44.4709C1.83883 44.042 1.85352 43.6455 1.8682 43.3077C1.88583 42.9699 1.90345 42.6908 1.90639 42.4925C1.9108 42.3941 1.90933 42.3177 1.9108 42.2649C1.9108 42.212 1.9108 42.1841 1.9108 42.1841C1.9108 42.1841 1.91227 42.212 1.91667 42.2649C1.92108 42.3163 1.92842 42.3941 1.93283 42.4925C1.94458 42.6893 1.95045 42.9728 1.96073 43.3091C1.97248 43.6455 1.98864 44.0376 2.06355 44.4445C2.10467 44.6457 2.15608 44.8513 2.24127 45.0423C2.32792 45.2332 2.44102 45.4095 2.58202 45.5578L2.58936 45.5651C2.68483 45.6694 2.80086 45.7575 2.92717 45.8325C3.05936 45.9015 3.19302 45.9646 3.33549 46.0102C3.61455 46.1071 3.90389 46.1673 4.17414 46.2173C4.44586 46.2672 4.70143 46.3054 4.93055 46.3465C5.16408 46.3906 5.35502 46.4302 5.51071 46.4625C6.99415 46.7783 8.17649 47.1338 8.15299 47.2542Z" fill="#63686D"/>
<path d="M2.79218 45.9292C2.78337 45.941 2.79071 45.9645 2.81421 45.9983C2.83771 46.0306 2.8803 46.0688 2.93759 46.1172C3.05362 46.2054 3.23868 46.3141 3.47809 46.4095C3.71749 46.505 4.01124 46.5887 4.33437 46.6636C4.65602 46.7341 5.00706 46.8105 5.37571 46.8927C5.74731 46.9721 6.35243 47.0866 7.05009 47.2129C7.74921 47.3392 8.53793 47.4876 9.28699 47.5919C10.7807 47.8122 12.0864 48.0046 12.0864 48.0046C12.0864 48.0046 10.8013 47.7094 9.32959 47.3716C8.59228 47.2129 7.81678 47.0102 7.12793 46.8428C6.44056 46.6754 5.84277 46.5344 5.47265 46.4536C5.28759 46.4154 5.10546 46.3772 4.92481 46.3434C4.74562 46.3111 4.57524 46.2847 4.41368 46.2582C4.09202 46.2068 3.80709 46.1584 3.57062 46.1055C3.09915 46.0056 2.82596 45.8808 2.79218 45.9292Z" fill="#63686D"/>
<path d="M23.2476 17.0595C23.2696 12.7825 23.4077 9.83769 26.7535 6.81206C30.3607 3.54997 33.9577 2.88756 38.6973 2.88022C44.7648 2.87141 50.6838 3.62634 56.7542 3.62634C59.3304 3.62634 62.1371 3.95094 64.6766 3.46772C67.5715 2.91841 69.9289 0.966438 72.4066 0C69.356 7.25562 59.9854 6.92516 59.9854 6.92516C59.9854 6.92516 61.1266 8.28522 66.4376 8.67884C56.7835 12.6665 49.1534 11.5972 49.1534 11.5972C49.1534 11.5972 49.6763 14.9666 55.8039 15.7597C55.7275 15.7421 51.9925 17.0155 46.1571 16.8627C44.59 16.8216 42.7996 16.4838 41.2721 16.074C38.9 15.4395 36.8071 14.1999 34.6128 13.1189C32.5477 12.1025 30.2829 11.1449 27.9769 11.9542C25.0365 12.9852 24.7134 15.4733 23.4958 17.8071L23.2476 17.0595Z" fill="#EF2B38"/>
<path d="M41.5464 59.5007C41.7461 57.8924 41.8548 56.2342 41.8548 54.5378C41.8548 39.746 33.8781 27.761 24.036 27.761C14.1953 27.761 6.22443 39.746 6.22443 54.5378C6.22443 56.2283 6.32577 57.888 6.52993 59.4948C3.28693 55.3353 1.33496 50.0008 1.33496 44.1831C1.33496 30.8997 11.5031 20.1294 24.036 20.1294C36.5747 20.1294 46.7414 30.8997 46.7414 44.1831C46.7414 50.0067 44.7938 55.3412 41.5464 59.5007Z" fill="#7A7C81"/>
<path d="M26.7738 26.2629C26.7738 28.0606 25.5504 29.5191 24.039 29.5191C22.5262 29.5191 21.3027 28.0606 21.3027 26.2629V19.1703C21.3027 17.3711 22.5262 15.9141 24.039 15.9141C25.5504 15.9141 26.7738 17.3711 26.7738 19.1703V26.2629Z" fill="#7A7C81"/>
<path d="M44.9671 30.9819C40.7488 30.011 28.686 27.335 24.0389 27.335C19.3903 27.335 7.32742 30.011 3.10917 30.9819C2.2896 31.1699 1.58754 32.0658 1.5376 32.9794L0.872259 45.3565C0.823791 46.2716 1.45095 47.1528 2.27345 47.3276C6.90735 48.3072 20.953 51.208 24.0389 51.0553C27.1232 51.208 41.1689 48.3072 45.8043 47.3276C46.6253 47.1528 47.2539 46.2716 47.204 45.3565L46.5401 32.9794C46.4887 32.0658 45.7866 31.1699 44.9671 30.9819Z" fill="#BCBCBE"/>
<path d="M22.7261 42.5159C22.7261 43.9157 21.7729 45.0481 20.5994 45.0481C19.4259 45.0481 18.4727 43.9157 18.4727 42.5159V35.7509C18.4727 34.3541 19.4259 33.2188 20.5994 33.2188C21.7729 33.2188 22.7261 34.3541 22.7261 35.7509V42.5159Z" fill="#63686D"/>
<path d="M20.5991 44.2489C19.7957 44.2489 19.1436 43.4705 19.1436 42.5158V35.7507C19.1436 34.7945 19.7957 34.0176 20.5991 34.0176C21.401 34.0176 22.0546 34.7945 22.0546 35.7507V42.5158C22.0546 43.4705 21.401 44.2489 20.5991 44.2489Z" fill="#3C3C3E"/>
<path d="M16.0782 42.5159C16.0782 43.9157 15.1265 45.0481 13.9515 45.0481C12.7765 45.0481 11.8247 43.9157 11.8247 42.5159V35.7509C11.8247 34.3541 12.7765 33.2188 13.9515 33.2188C15.1265 33.2188 16.0782 34.3541 16.0782 35.7509V42.5159Z" fill="#63686D"/>
<path d="M13.9516 44.2489C13.1482 44.2489 12.4961 43.4705 12.4961 42.5158V35.7507C12.4961 34.7945 13.1482 34.0176 13.9516 34.0176C14.7536 34.0176 15.4057 34.7945 15.4057 35.7507V42.5158C15.4057 43.4705 14.7536 44.2489 13.9516 44.2489Z" fill="#3C3C3E"/>
<path d="M9.43074 42.5159C9.43074 43.9157 8.47899 45.0481 7.30399 45.0481C6.12899 45.0481 5.17871 43.9157 5.17871 42.5159V35.7509C5.17871 34.3541 6.12899 33.2188 7.30399 33.2188C8.47899 33.2188 9.43074 34.3541 9.43074 35.7509V42.5159Z" fill="#63686D"/>
<path d="M7.30417 44.2489C6.50076 44.2489 5.84863 43.4705 5.84863 42.5158V35.7507C5.84863 34.7945 6.50076 34.0176 7.30417 34.0176C8.10611 34.0176 8.7597 34.7945 8.7597 35.7507V42.5158C8.7597 43.4705 8.10611 44.2489 7.30417 44.2489Z" fill="#3C3C3E"/>
<path d="M29.3736 42.5159C29.3736 43.9157 28.4219 45.0481 27.2469 45.0481C26.0733 45.0481 25.1201 43.9157 25.1201 42.5159V35.7509C25.1201 34.3541 26.0733 33.2188 27.2469 33.2188C28.4219 33.2188 29.3736 34.3541 29.3736 35.7509V42.5159Z" fill="#63686D"/>
<path d="M27.2465 44.2489C26.4446 44.2489 25.7925 43.4705 25.7925 42.5158V35.7507C25.7925 34.7945 26.4446 34.0176 27.2465 34.0176C28.0485 34.0176 28.7021 34.7945 28.7021 35.7507V42.5158C28.7021 43.4705 28.0485 44.2489 27.2465 44.2489Z" fill="#3C3C3E"/>
<path d="M36.0211 42.5159C36.0211 43.9157 35.0679 45.0481 33.8943 45.0481C32.7208 45.0481 31.7676 43.9157 31.7676 42.5159V35.7509C31.7676 34.3541 32.7208 33.2188 33.8943 33.2188C35.0679 33.2188 36.0211 34.3541 36.0211 35.7509V42.5159Z" fill="#63686D"/>
<path d="M33.8945 44.2489C33.0926 44.2489 32.439 43.4705 32.439 42.5158V35.7507C32.439 34.7945 33.0926 34.0176 33.8945 34.0176C34.6964 34.0176 35.35 34.7945 35.35 35.7507V42.5158C35.35 43.4705 34.6964 44.2489 33.8945 44.2489Z" fill="#3C3C3E"/>
<path d="M42.6671 42.5159C42.6671 43.9157 41.7168 45.0481 40.5418 45.0481C39.3668 45.0481 38.415 43.9157 38.415 42.5159V35.7509C38.415 34.3541 39.3668 33.2188 40.5418 33.2188C41.7168 33.2188 42.6671 34.3541 42.6671 35.7509V42.5159Z" fill="#63686D"/>
<path d="M40.542 44.2489C39.7386 44.2489 39.0864 43.4705 39.0864 42.5158V35.7507C39.0864 34.7945 39.7386 34.0176 40.542 34.0176C41.3439 34.0176 41.9975 34.7945 41.9975 35.7507V42.5158C41.9975 43.4705 41.3439 44.2489 40.542 44.2489Z" fill="#3C3C3E"/>
<path d="M56.359 5.5475C55.9889 5.57393 55.4557 5.6224 54.8006 5.62534C53.4949 5.665 51.7148 5.60037 49.823 5.42706C47.9298 5.26109 45.9206 5.01728 44.1272 4.85425C43.6998 4.81459 43.2842 4.78081 42.8861 4.75143C42.115 4.6824 41.2646 4.63687 40.3613 4.63246C40.1543 4.62953 39.9574 4.62806 39.7856 4.631C39.768 4.631 39.7489 4.63246 39.7312 4.63246C39.6049 4.63393 39.4727 4.63687 39.3288 4.64275C38.8838 4.65743 38.449 4.68387 38.029 4.72353C38.0231 4.72353 38.0187 4.72353 38.0128 4.725C38.0069 4.725 37.9996 4.72646 37.9937 4.72646C37.6442 4.76025 37.3019 4.79843 36.9759 4.8469C36.9245 4.85278 36.876 4.85718 36.8231 4.86453C36.406 4.91153 35.9698 5.00846 35.5174 5.08484C35.4043 5.1054 35.2912 5.12596 35.1767 5.148C35.0636 5.1759 34.9505 5.20381 34.8359 5.23318C34.6068 5.29046 34.3762 5.34921 34.1427 5.40796C33.6697 5.52546 33.2144 5.65325 32.7385 5.80012C31.7956 6.09093 30.8497 6.44637 29.9758 6.88553C29.1004 7.32175 28.3014 7.84609 27.6464 8.4189C26.9884 8.98878 26.4816 9.60272 26.1042 10.1476C25.737 10.7028 25.4917 11.186 25.3434 11.5297C25.2009 11.8749 25.1201 12.0673 25.1201 12.0673C25.1201 12.0673 25.2185 11.8837 25.3948 11.5562C25.5754 11.2316 25.8633 10.7777 26.2716 10.2739C26.6902 9.77897 27.2322 9.237 27.9078 8.75231C28.5834 8.26615 29.3839 7.84021 30.2505 7.49946C31.117 7.15578 32.0453 6.89434 32.9735 6.68871C33.4332 6.5859 33.9135 6.4919 34.3659 6.41553C34.5936 6.37587 34.8183 6.33768 35.0401 6.29803C35.1517 6.27893 35.2604 6.25984 35.3705 6.24075C35.4807 6.229 35.5908 6.21725 35.6995 6.2055C36.0638 6.17025 36.4104 6.12471 36.7512 6.09534C37.6677 6.03512 38.6987 5.98665 39.8047 5.97637C39.8091 5.97637 39.815 5.97637 39.8179 5.9749C39.8443 5.97637 39.8752 5.9749 39.9016 5.9749C40.871 5.96462 41.7978 5.96609 42.6408 5.96462C43.0918 5.96903 43.5662 5.97637 44.0641 5.98665C45.8457 6.02337 47.8769 6.09975 49.7937 6.09828C51.7104 6.10562 53.5096 5.99987 54.8153 5.8339C55.4704 5.76928 55.9991 5.66793 56.3663 5.60478C56.7335 5.54162 56.9391 5.50637 56.9391 5.50637C56.9391 5.50637 56.7306 5.52106 56.359 5.5475Z" fill="#C41F26"/>
<path d="M15.2604 24.011C15.2046 23.895 16.2665 23.309 17.6985 22.9124C18.0554 22.8169 18.64 22.6847 19.32 22.5731C20.0001 22.4718 20.7726 22.3778 21.5026 22.3425C21.8668 22.3146 22.2208 22.3131 22.5439 22.3014C22.8685 22.2955 23.1652 22.2999 23.4149 22.2999C23.9143 22.3131 24.233 22.3234 24.233 22.3234C24.233 22.3234 23.9157 22.3411 23.4164 22.369C23.1681 22.3895 22.8744 22.4145 22.5527 22.4424C22.2326 22.4806 21.883 22.51 21.5246 22.5658C20.8064 22.6554 20.0515 22.8052 19.3891 22.9447C18.7296 23.0945 18.1656 23.2517 17.816 23.3457C16.4237 23.7305 15.3103 24.1182 15.2604 24.011Z" fill="#A9ADB1"/>
<path d="M20.3877 22.588C20.373 22.4646 19.1686 22.5204 17.7336 22.9023C17.5574 22.9537 17.3253 23.0257 17.0565 23.1109C16.7892 23.2019 16.4867 23.3165 16.165 23.4384C16.0064 23.5075 15.8433 23.578 15.6759 23.6499C15.5937 23.6866 15.5085 23.7234 15.4248 23.7601C15.341 23.8012 15.2573 23.8423 15.1751 23.8835C15.0076 23.9657 14.8402 24.0494 14.6728 24.1331C14.5097 24.2242 14.3467 24.3167 14.1881 24.4063C14.0265 24.493 13.8738 24.5885 13.7269 24.6839C13.5785 24.7794 13.4361 24.8705 13.298 24.9571C13.0351 25.148 12.7942 25.3214 12.5901 25.4682C12.2023 25.784 11.9556 25.9852 11.9556 25.9852C11.9556 25.9852 12.2185 25.806 12.6312 25.524C12.8442 25.3963 13.0968 25.245 13.3729 25.0775C13.5154 25.0026 13.6637 24.9233 13.8165 24.8425C13.9692 24.7603 14.1264 24.678 14.2909 24.6046C14.4554 24.5282 14.6213 24.4504 14.7873 24.3725C14.9577 24.302 15.1281 24.233 15.2984 24.164C15.3822 24.1287 15.4673 24.095 15.5511 24.0597C15.6363 24.0289 15.7214 23.9995 15.8037 23.9686C15.9726 23.9099 16.1371 23.8511 16.2957 23.7939C16.6174 23.694 16.9185 23.597 17.1829 23.5207C17.4502 23.4487 17.6778 23.3855 17.8511 23.3341C19.2479 22.9625 20.4038 22.7099 20.3877 22.588Z" fill="#A9ADB1"/>
<path d="M43.1239 31.6238C43.1034 31.684 42.8273 31.6444 42.3896 31.5827C41.9504 31.518 41.3409 31.4402 40.6667 31.3183C40.3289 31.2566 39.7855 31.1435 39.1598 31.0084C38.5356 30.8674 37.8262 30.7308 37.1696 30.5399C35.8566 30.183 34.708 29.8716 34.708 29.8716C34.708 29.8716 35.8786 30.0816 37.2166 30.321C37.882 30.4561 38.6002 30.5384 39.2303 30.6368C39.8604 30.7293 40.4053 30.8145 40.7416 30.8762C41.4158 30.9981 42.0283 31.1274 42.4615 31.2742C42.8963 31.4182 43.1445 31.5665 43.1239 31.6238Z" fill="#A9ADB1"/>
<path d="M38.2314 30.6453C38.2064 30.7672 39.2815 31.0653 40.6328 31.3121C40.9691 31.3767 41.517 31.4472 42.1383 31.5574C42.7551 31.6705 43.4557 31.8261 44.0168 32.1698C44.2929 32.3446 44.5309 32.559 44.7027 32.7985C44.7497 32.8557 44.7791 32.9233 44.8173 32.982C44.8496 33.0437 44.8936 33.0981 44.9157 33.1627C44.9627 33.2875 45.0244 33.3992 45.0523 33.5108C45.0831 33.6239 45.111 33.7252 45.136 33.8148C45.1536 33.9059 45.1639 33.9867 45.1756 34.0513C45.1962 34.1835 45.2094 34.2569 45.2094 34.2569C45.2094 34.2569 45.2035 34.182 45.1947 34.0498C45.1903 33.9837 45.1859 33.9015 45.1771 33.8075C45.1595 33.715 45.1404 33.6092 45.1198 33.4932C45.1007 33.3757 45.0493 33.2552 45.0111 33.1216C44.9935 33.054 44.9539 32.9923 44.9245 32.9248C44.8907 32.8587 44.8643 32.7867 44.8217 32.7221C44.6616 32.4518 44.4251 32.1963 44.1416 31.9833C43.5659 31.5632 42.8403 31.3444 42.2176 31.1872C41.5904 31.033 41.0426 30.9346 40.7077 30.87C39.3653 30.6247 38.2564 30.5248 38.2314 30.6453Z" fill="#A9ADB1"/>
<path d="M8.15299 47.2542C8.12949 47.3761 6.90161 47.2175 5.41377 46.9002C5.10533 46.8327 4.63974 46.7284 4.09189 46.6065C3.8143 46.5389 3.51467 46.4581 3.21211 46.3318C3.06083 46.2716 2.90955 46.1894 2.76414 46.0998C2.6202 46.0014 2.48361 45.8839 2.37052 45.7399L2.37786 45.7473C2.2207 45.5607 2.10614 45.3448 2.02683 45.1275C1.94752 44.9071 1.9108 44.6854 1.88289 44.4709C1.83883 44.042 1.85352 43.6455 1.8682 43.3077C1.88583 42.9699 1.90345 42.6893 1.90639 42.4925C1.91227 42.2957 1.9108 42.1841 1.9108 42.1841C1.9108 42.1841 1.92255 42.2957 1.93283 42.4925C1.94458 42.6893 1.95045 42.9713 1.96073 43.3091C1.97248 43.6455 1.98864 44.0391 2.06355 44.4445C2.10467 44.6457 2.15608 44.8513 2.24127 45.0423C2.32792 45.2332 2.44102 45.4095 2.58202 45.5578L2.58936 45.5651C2.68483 45.6694 2.80086 45.7575 2.92717 45.8325C3.05936 45.9015 3.19302 45.9646 3.33549 46.0102C3.61455 46.1071 3.90389 46.1673 4.17414 46.2173C4.45027 46.2643 4.70583 46.3083 4.93055 46.3465C5.16408 46.3906 5.35502 46.4302 5.51071 46.4625C6.99415 46.7783 8.17649 47.1338 8.15299 47.2542Z" fill="#A9ADB1"/>
<path d="M2.79209 45.9292C2.75096 45.9792 2.99331 46.2186 3.47799 46.4095C3.7174 46.505 4.01115 46.5887 4.33428 46.6636C4.65593 46.7341 5.00696 46.812 5.37562 46.8927C5.74721 46.9721 6.35234 47.0866 7.04999 47.2129C7.74912 47.3392 8.53784 47.4876 9.2869 47.5919C10.7806 47.8122 12.0863 48.0046 12.0863 48.0046C12.0863 48.0046 10.7997 47.7094 9.32949 47.3716C8.59218 47.2129 7.81668 47.0102 7.12784 46.8428C6.44046 46.6754 5.84268 46.5344 5.47256 46.4536C5.28749 46.4154 5.10537 46.3772 4.92471 46.3434C4.74553 46.3111 4.57515 46.2847 4.41359 46.2582C4.09193 46.2068 3.80699 46.1584 3.57053 46.1055C3.09906 46.0056 2.82587 45.8808 2.79209 45.9292Z" fill="#A9ADB1"/>
</svg>
